<svg width="1em" height="1em" viewBox="0 0 188 26" fill="none" xmlns="http://www.w3.org/2000/svg">
<path d="M112.333 21.9715H117.879C121.093 21.9715 122.473 21.5668 123.045 18.3532L123.473 15.9727C123.568 15.4728 123.783 14.0683 123.783 13.4017C123.783 11.6164 122.497 11.3307 120.474 11.3307H117.427C116.76 11.3307 116.427 11.2117 116.427 10.807C116.427 10.5928 116.498 10.1167 116.617 9.49773L116.903 8.02182C117.141 6.80777 117.332 6.56972 118.427 6.56972H124.211L125.306 3.95117H118.26C115.284 3.95117 114.356 4.61771 113.856 7.47431L113.404 9.99763C113.285 10.688 113.19 11.3069 113.19 11.8306C113.19 13.3303 113.832 14.0683 115.76 14.0683H119.307C120.164 14.0683 120.498 14.1159 120.498 14.6396C120.498 14.9015 120.45 15.4252 120.283 16.2583L120.045 17.4962C119.736 19.1625 119.498 19.3292 117.927 19.3292H111.856L112.333 21.9715Z" fill="currentcolor"/>
<path d="M130.124 10.8784H133.909L134.337 8.47411H130.552L131.266 4.47488H128.314L127.6 8.47411H125.815L125.41 10.8784H127.172L126.101 16.9487C125.958 17.7104 125.839 18.5436 125.839 19.1625C125.839 21.2574 127.172 21.9715 129.838 21.9715H131.576L132.599 19.5672H130.981C129.433 19.5672 128.838 19.5434 128.838 18.5912C128.838 18.2103 128.933 17.5914 129.052 16.9487L130.124 10.8784Z" fill="currentcolor"/>
<path fill-rule="evenodd" clip-rule="evenodd" d="M136.155 8.47411H142.344C145.034 8.47411 146.081 9.21207 146.081 10.926C146.081 11.4973 145.915 12.4495 145.772 13.2589L144.248 21.9715H137.107C134.798 21.9715 134.084 21.1384 134.084 19.5672C134.084 18.9959 134.179 18.377 134.298 17.6628L134.441 16.8535C135.012 13.6636 136.059 13.4732 139.297 13.4732H142.868L142.939 13.0447C143.034 12.5448 143.106 12.1639 143.106 11.8306C143.106 11.1165 142.701 10.8784 141.344 10.8784H136.559L136.155 8.47411ZM137.059 18.8531C137.059 19.4244 137.297 19.5672 137.94 19.5672H141.796L142.463 15.7584H138.749C137.75 15.7584 137.512 15.9727 137.345 16.9487L137.154 18.0199C137.083 18.4008 137.059 18.6626 137.059 18.8531Z" fill="currentcolor"/>
<path d="M146.66 21.9715H149.636L151.231 12.9971C151.54 11.2117 151.897 10.926 153.611 10.926H155.778L156.801 8.47411H153.516C149.779 8.47411 148.922 9.14065 148.279 12.8304L146.66 21.9715Z" fill="currentcolor"/>
<path d="M165.098 10.8784H161.313L160.242 16.9487C160.123 17.5914 160.028 18.2103 160.028 18.5912C160.028 19.5434 160.623 19.5672 162.17 19.5672H163.789L162.765 21.9715H161.027C158.361 21.9715 157.028 21.2574 157.028 19.1625C157.028 18.5436 157.147 17.7104 157.29 16.9487L158.361 10.8784H156.6L157.004 8.47411H158.79L159.504 4.47488H162.456L161.742 8.47411H165.527L165.098 10.8784Z" fill="currentcolor"/>
<path fill-rule="evenodd" clip-rule="evenodd" d="M173.343 8.30748H171.724C168.225 8.30748 166.844 8.97402 166.273 12.2591L165.345 17.5914C165.249 18.1627 165.178 18.7579 165.178 19.2578C165.178 21.186 166.273 21.9715 169.368 21.9715H173.748L174.724 19.5672H169.939C168.558 19.5672 168.13 19.3768 168.13 18.5436C168.13 18.2818 168.177 17.9009 168.249 17.4962L168.368 16.7582H173.605C175.581 16.7582 176.366 16.0203 176.747 13.9016L177.08 12.0211C177.152 11.6402 177.176 11.2593 177.176 10.9736C177.176 8.97402 175.843 8.30748 173.343 8.30748ZM174.129 12.0211L173.867 13.5684C173.772 14.1873 173.51 14.4492 172.843 14.4492H168.796L169.177 12.2591C169.439 10.8308 169.963 10.688 171.058 10.688H172.748C173.843 10.688 174.2 10.8308 174.2 11.4021C174.2 11.5688 174.176 11.7354 174.129 12.0211Z" fill="currentcolor"/>
<path d="M179.919 21.9715H176.943L178.562 12.8304C179.205 9.14065 180.062 8.47411 183.799 8.47411H187.084L186.06 10.926H183.894C182.18 10.926 181.823 11.2117 181.514 12.9971L179.919 21.9715Z" fill="currentcolor"/>
<path d="M8.52984 16.5117H3.22852L5.21226 5.29688H10.5136L8.52984 16.5117Z" fill="url(#paint0_linear_18110_34031)"/>
<path d="M20.0919 5.28999H5.21191L6.149 0H20.8476C20.9168 0.00013044 20.9851 0.0153276 21.0478 0.0445343C21.1105 0.0737409 21.166 0.116256 21.2106 0.169121C21.2552 0.221986 21.2878 0.283932 21.306 0.35065C21.3242 0.417368 21.3277 0.487255 21.3162 0.555449L20.5416 4.91213C20.5236 5.01823 20.4685 5.11448 20.3862 5.1837C20.3038 5.25293 20.1995 5.2906 20.0919 5.28999V5.28999Z" fill="url(#paint1_linear_18110_34031)"/>
</svg>
