<svg t="1614927670839" class="icon" viewBox="0 0 1024 1024" version="1.1" xmlns="http://www.w3.org/2000/svg" p-id="26694" width="32" height="32"><path d="M943.5 179.7H643.2v55.6h88.5v87.9h-88.5v28h88.5v88h-88.5V468h88.5v83.2h-88.5v33.4h88.5V668h-88.5v33.4h88.5v83.9h-88.5v61.2h300.3c4.7-1.4 8.7-7 11.9-16.7 3.2-9.8 4.8-17.7 4.8-23.8V189.8c0-4.8-1.6-7.7-4.8-8.7-3.9-1-7.9-1.5-11.9-1.4z m-39 605.5h-144v-83.8h144.1l-0.1 83.8z m0-117.2h-144v-83.5h144.1l-0.1 83.5z m0-116.8h-144v-82.9h144.1l-0.1 82.9z m0-112h-144v-87.9h144.1l-0.1 87.9z m0-116.5h-144v-87.4h144.1v88l-0.1-0.6zM63.8 165.8v694.7L592.7 952V72L63.8 166.1v-0.3z m313.5 525.5c-2-5.5-11.5-28.6-28.3-69.6-9.7-23.9-19.7-47.8-29.8-71.6h-0.9l-56.7 135-75.8-5.1 89.8-168-82.4-168 77.3-4.1 51.1 131.5h1l57.7-137.5 79.9-5-95.1 181.9 98 185.5-85.8-5z" fill="#107B0F" p-id="26695"></path></svg>