<?xml version="1.0" standalone="no"?><!DOCTYPE svg PUBLIC "-//W3C//DTD SVG 1.1//EN" "http://www.w3.org/Graphics/SVG/1.1/DTD/svg11.dtd"><svg t="1603870536416" class="icon" viewBox="0 0 1024 1024" version="1.1" xmlns="http://www.w3.org/2000/svg" p-id="6636" xmlns:xlink="http://www.w3.org/1999/xlink" width="48" height="48"><defs></defs><path d="M569.088 85.333333a32 32 0 0 1 31.744 28.032l5.610667 44.906667 0.170666 1.834667 0.32 2.026666a42.666667 42.666667 0 0 0 17.322667 27.434667 340.778667 340.778667 0 0 1 110.549333 63.850667c11.2 5.226667 24.512 5.546667 36.309334-0.064l41.685333-17.6a32 32 0 0 1 40.170667 13.482666l57.066666 98.858667a32 32 0 0 1-8.384 41.514667l-36.010666 27.242666-1.578667 1.152-1.6 1.28a42.666667 42.666667 0 0 0-15.125333 28.885334 343.168 343.168 0 0 1 0.021333 127.68c0.917333 10.24 5.546667 19.989333 13.248 27.242666l1.941333 1.706667c0.981333 0.810667 2.005333 1.6 3.072 2.325333l36.032 27.264a32 32 0 0 1 8.384 41.514667l-57.066666 98.858667a32 32 0 0 1-40.170667 13.482666l-41.685333-17.6a42.624 42.624 0 0 0-36.266667-0.085333 340.906667 340.906667 0 0 1-110.549333 63.872c-8.32 5.888-14.442667 14.72-16.853334 24.96l-0.554666 2.688c-0.213333 1.194667-0.362667 2.410667-0.448 3.648l-5.610667 44.906667A32 32 0 0 1 569.088 938.666667h-114.176a32 32 0 0 1-31.744-28.032l-5.589333-44.693334a42.624 42.624 0 0 0-17.834667-31.509333 340.736 340.736 0 0 1-110.549333-63.850667 42.581333 42.581333 0 0 0-36.309334 0.064L211.2 788.266667a32 32 0 0 1-40.170667-13.482667l-57.066666-98.858667a32 32 0 0 1 8.384-41.514666l36.053333-27.264 1.536-1.130667 1.6-1.28c8.853333-7.381333 14.122667-17.877333 15.125333-28.885333a343.168 343.168 0 0 1-0.021333-127.68 42.581333 42.581333 0 0 0-13.248-27.242667l-1.941333-1.706667a42.709333 42.709333 0 0 0-3.072-2.325333l-36.032-27.264a32 32 0 0 1-8.384-41.514667l57.066666-98.858666A32 32 0 0 1 211.2 235.733333l41.685333 17.6a42.624 42.624 0 0 0 36.266667 0.085334 340.821333 340.821333 0 0 1 110.570667-63.872c10.048-7.125333 16.853333-18.517333 17.856-31.509334l5.589333-44.693333A32 32 0 0 1 454.912 85.333333h114.176zM512 384a128 128 0 1 0 4.8 0.085333L512 384z" p-id="6637"></path></svg>