<svg t="1614927640535" class="icon" viewBox="0 0 1024 1024" version="1.1" xmlns="http://www.w3.org/2000/svg" p-id="23248" width="32" height="32"><path d="M531.285 85.333h57.984v79.403c103.766 0.896 207.403-1.11 310.955 0.896a33.707 33.707 0 0 1 37.419 37.93c1.706 195.585 0 391.51 1.024 586.795a119.467 119.467 0 0 1-9.43 60.246 90.965 90.965 0 0 1-48.981 10.026H589.269v78.038h-60.202c-147.926-27.222-295.808-52.523-443.734-79.019V164.949c148.608-26.624 297.302-52.522 445.952-79.616z" fill="#2A5699" p-id="23249"></path><path d="M589.312 194.56h320v635.307h-320v-79.403h252.032V710.4H589.312v-49.195h252.032V620.8H589.312v-49.067h252.032v-40.149H589.312v-50.176h252.032v-38.656H589.312v-50.219h252.032v-39.168H589.312V303.66h252.032V264.02H589.312zM286.08 369.963c18.475-1.11 36.821-1.92 55.467-2.902 12.8 67.072 26.069 133.931 40.149 200.79 10.923-68.95 23.083-137.643 34.816-206.422 19.37-0.682 38.741-1.792 58.112-3.029-21.973 96.17-41.13 193.237-65.11 288.81-16.17 8.534-40.149 0-59.733 1.025-13.44-65.878-28.416-131.2-39.936-197.163-11.349 64-26.069 127.701-39.04 191.36a3627.52 3627.52 0 0 1-56.106-3.413c-16.043-87.339-35.03-174.166-50.176-261.718a3640.55 3640.55 0 0 1 50.176-2.09c10.026 63.232 21.333 126.208 30.08 189.525 13.44-64.939 27.392-129.792 41.344-194.773z" fill="#FFFFFF" p-id="23250"></path></svg>